<svg xmlns="http://www.w3.org/2000/svg" xmlns:xlink="http://www.w3.org/1999/xlink" fill="none" version="1.1" width="145.02398681640625" height="38.20001220703125" viewBox="0 0 145.02398681640625 38.20001220703125"><g><g><path d="M2.73598681640625,37.696Q2.12398681640625,37.696,1.36798681640625,37.642Q0.6119868164062501,37.588,-0.000013183593750021316,37.48L-0.000013183593750021316,33.664Q0.50398681640625,33.736,1.07998681640625,33.808Q1.65598681640625,33.88,2.37598681640625,33.88Q4.42798681640625,33.88,5.21998681640625,32.656Q6.0119868164062495,31.432,6.0119868164062495,29.344L6.0119868164062495,6.016L10.69198681640625,6.016L10.69198681640625,29.632Q10.69198681640625,33.592,8.63998681640625,35.644Q6.58798681640625,37.696,2.73598681640625,37.696ZM33.19198681640625,11.56L33.19198681640625,31L29.15998681640625,31L28.76398681640625,28.516Q27.93598681640625,30.1,26.36998681640625,30.73Q24.80398681640625,31.36,22.75198681640625,31.36Q20.91598681640625,31.36,19.67398681640625,30.928Q18.43198681640625,30.496,17.65798681640625,29.668Q16.88398681640625,28.84,16.55998681640625,27.634Q16.23598681640625,26.428,16.23598681640625,24.916L16.23598681640625,11.56L20.73598681640625,11.56L20.73598681640625,23.62Q20.73598681640625,24.628,20.87998681640625,25.384Q21.02398681640625,26.14,21.40198681640625,26.626Q21.77998681640625,27.112,22.42798681640625,27.364Q23.07598681640625,27.616,24.11998681640625,27.616Q25.73998681640625,27.616,26.92798681640625,27.004Q28.11598681640625,26.392,28.69198681640625,24.52L28.69198681640625,11.56L33.19198681640625,11.56ZM44.06398681640625,31.216Q41.18398681640625,31.216,40.01398681640625,30.082Q38.84398681640625,28.948,38.84398681640625,26.464L38.84398681640625,3.64L43.34398681640625,3.64L43.34398681640625,25.384Q43.34398681640625,26.752,43.72198681640625,27.184Q44.09998681640625,27.616,45.03598681640625,27.616Q45.64798681640625,27.616,46.22398681640625,27.472L46.22398681640625,31Q45.25198681640625,31.216,44.06398681640625,31.216ZM48.92398681640625,34.312Q51.40798681640625,34.312,52.54198681640625,33.466Q53.67598681640625,32.62,54.21598681640625,30.892L46.54798681640625,11.56L51.51598681640625,11.56L56.59198681640625,26.176L56.80798681640625,26.176L61.55998681640625,11.56L66.31198681640625,11.56L59.65198681640625,29.596Q58.78798681640625,31.936,57.90598681640625,33.574Q57.02398681640625,35.212,55.83598681640625,36.238Q54.64798681640625,37.264,52.99198681640625,37.732Q51.33598681640625,38.2,48.92398681640625,38.2L48.92398681640625,34.312Z" fill="#3D3D3D" fill-opacity="1"/></g><g><g><path d="M70.02398681640625,32C70.02398681640625,35.3137,72.71027681640625,38,76.02398681640625,38L139.02398681640625,38C142.33768681640623,38,145.02398681640625,35.3137,145.02398681640625,32L145.02398681640625,9C145.02398681640625,5.68629,142.33768681640623,3,139.02398681640625,3L76.02398681640625,3C72.71027681640625,3,70.02398681640625,5.68629,70.02398681640625,9L70.02398681640625,32Z" fill="#008AFA" fill-opacity="1"/></g><g><path d="M84.65998681640625,31.36Q82.42798681640625,31.36,80.68198681640625,30.892Q78.93598681640626,30.424,77.72998681640625,29.272Q76.52398681640625,28.12,75.89398681640625,26.176Q75.26398681640624,24.232,75.26398681640624,21.28Q75.26398681640624,18.328,75.89398681640625,16.384Q76.52398681640625,14.44,77.72998681640625,13.288Q78.93598681640626,12.136,80.68198681640625,11.668Q82.42798681640625,11.2,84.65998681640625,11.2Q86.17198681640625,11.2,87.48598681640625,11.38Q88.79998681640625,11.56,89.69998681640625,11.848L89.69998681640625,15.7Q88.65598681640626,15.304,87.53998681640626,15.124Q86.42398681640626,14.944,85.12798681640625,14.944Q83.72398681640625,14.944,82.73398681640626,15.25Q81.74398681640625,15.556,81.11398681640625,16.276Q80.48398681640624,16.996,80.19598681640625,18.22Q79.90798681640625,19.444,79.90798681640625,21.316Q79.90798681640625,23.152,80.19598681640625,24.358Q80.48398681640624,25.564,81.11398681640625,26.284Q81.74398681640625,27.004,82.75198681640624,27.292Q83.75998681640625,27.58,85.19998681640625,27.58Q86.42398681640626,27.58,87.61198681640624,27.4Q88.79998681640625,27.22,89.84398681640624,26.824L89.84398681640624,30.64Q89.41198681640626,30.784,88.81798681640625,30.91Q88.22398681640625,31.036,87.52198681640625,31.144Q86.81998681640624,31.252,86.08198681640624,31.306Q85.34398681640624,31.36,84.65998681640625,31.36ZM115.90798681640625,11.2Q119.25598681640625,11.2,120.80398681640625,12.874Q122.35198681640625,14.548,122.35198681640625,17.932L122.35198681640625,31L117.85198681640625,31L117.85198681640625,18.94Q117.85198681640625,16.888,117.16798681640626,15.916Q116.48398681640626,14.944,114.64798681640625,14.944Q113.02798681640624,14.944,111.96598681640626,15.592Q110.90398681640625,16.24,110.47198681640626,17.968L110.47198681640626,31L105.97198681640626,31L105.97198681640626,18.94Q105.97198681640626,16.888,105.30598681640625,15.916Q104.63998681640625,14.944,102.83998681640625,14.944Q101.21998681640625,14.944,100.21198681640625,15.556Q99.20398681640626,16.168,98.73598681640625,17.86L98.73598681640625,31L94.23598681640625,31L94.23598681640625,11.56L98.73598681640625,11.56L98.73598681640625,13.864Q99.56398681640624,12.424,100.93198681640625,11.812Q102.29998681640625,11.2,104.24398681640625,11.2Q106.51198681640625,11.2,107.84398681640624,11.938Q109.17598681640625,12.676,109.82398681640625,14.08Q110.65198681640625,12.496,112.27198681640624,11.848Q113.89198681640624,11.2,115.90798681640625,11.2ZM133.00798681640626,31.216Q131.38798681640625,31.216,129.76798681640625,31.054Q128.14798681640625,30.892,126.99598681640626,30.604L126.99598681640626,26.824Q128.25598681640625,27.22,129.85798681640625,27.454Q131.45998681640626,27.688,132.79198681640625,27.688Q134.66398681640624,27.688,135.56398681640624,27.22Q136.46398681640625,26.752,136.46398681640625,25.384Q136.46398681640625,24.7,136.30198681640624,24.25Q136.13998681640624,23.8,135.70798681640625,23.476Q135.27598681640626,23.152,134.50198681640626,22.9Q133.72798681640626,22.648,132.50398681640624,22.36Q130.91998681640627,22,129.91198681640626,21.532Q128.90398681640625,21.064,128.30998681640625,20.434Q127.71598681640626,19.804,127.48198681640625,18.922Q127.24798681640624,18.04,127.24798681640624,16.816Q127.24798681640624,14.188,129.01198681640625,12.694Q130.77598681640626,11.2,134.73598681640624,11.2Q136.28398681640624,11.2,137.74198681640627,11.38Q139.19998681640624,11.56,139.91998681640627,11.848L139.70398681640626,15.376Q138.91198681640626,15.088,137.56198681640626,14.872Q136.21198681640624,14.656,134.87998681640624,14.656Q133.00798681640626,14.656,132.23398681640626,15.106Q131.45998681640626,15.556,131.45998681640626,16.78Q131.45998681640626,17.356,131.60398681640623,17.716Q131.74798681640624,18.076,132.14398681640625,18.328Q132.53998681640624,18.58,133.24198681640627,18.796Q133.94398681640627,19.012,135.09598681640625,19.3Q136.71598681640626,19.696,137.79598681640624,20.164Q138.87598681640625,20.632,139.52398681640625,21.298Q140.17198681640625,21.964,140.44198681640626,22.918Q140.71198681640624,23.872,140.71198681640624,25.24Q140.71198681640624,28.516,138.69598681640625,29.866Q136.67998681640626,31.216,133.00798681640626,31.216Z" fill="#FFFFFF" fill-opacity="1"/></g></g></g></svg>